<svg width="16" height="16" viewBox="0 0 16 16" fill="none" xmlns="http://www.w3.org/2000/svg">
<circle cx="8" cy="8" r="7.5" fill="#FCFCFC" stroke="#610BEF"/>
<path d="M7.51903 10.063C7.5155 9.93427 7.51374 9.83769 7.51374 9.77331C7.51374 9.39414 7.5666 9.06685 7.6723 8.79142C7.74982 8.58395 7.87491 8.37469 8.04757 8.16365C8.17442 8.00984 8.40169 7.78627 8.72939 7.49296C9.06061 7.19607 9.27555 6.95998 9.37421 6.78471C9.47287 6.60943 9.5222 6.41806 9.5222 6.2106C9.5222 5.83501 9.37773 5.50592 9.08879 5.22334C8.79986 4.93718 8.44574 4.7941 8.02643 4.7941C7.62121 4.7941 7.28295 4.92287 7.01163 5.18042C6.74031 5.43796 6.56237 5.84038 6.4778 6.38766L5.5 6.26962C5.58809 5.53633 5.84884 4.97474 6.28224 4.58484C6.71917 4.19495 7.29528 4 8.01057 4C8.76815 4 9.37245 4.20926 9.82347 4.62777C10.2745 5.04628 10.5 5.55243 10.5 6.14621C10.5 6.4896 10.4207 6.80617 10.2622 7.09591C10.1036 7.38565 9.79352 7.73798 9.33192 8.15292C9.02185 8.43192 8.81924 8.6376 8.7241 8.76995C8.62896 8.9023 8.55849 9.05433 8.51268 9.22602C8.46688 9.39772 8.44045 9.67673 8.4334 10.063H7.51903ZM7.46089 12V10.9001H8.5444V12H7.46089Z" fill="#610BEF"/>
</svg>
