<svg width="27" height="28" viewBox="0 0 27 28" fill="none" xmlns="http://www.w3.org/2000/svg">
<path d="M6.7487 26.1802H20.2453C20.7094 26.1802 21.0925 25.8006 21.0925 25.3365C21.0925 24.8724 20.7094 24.4927 20.2453 24.4927H6.7487C6.28464 24.4927 5.90495 24.8724 5.90495 25.3365C5.90495 25.8006 6.28464 26.1802 6.7487 26.1802ZM14.388 22.8238H25.0345C25.4565 22.83 25.8653 22.6763 26.1786 22.3935C26.328 22.2548 26.448 22.0873 26.5312 21.9012C26.6144 21.715 26.6592 21.514 26.6629 21.3101V3.32136C26.6601 3.11629 26.6143 2.91409 26.5286 2.72778C26.4428 2.54148 26.319 2.3752 26.1651 2.23968C25.8679 1.96658 25.4785 1.81588 25.075 1.8178H1.97645C1.55337 1.80837 1.14233 1.95904 0.825578 2.23968C0.673076 2.3765 0.5509 2.54372 0.466908 2.7306C0.382916 2.91747 0.338968 3.11986 0.337891 3.32474V21.3236C0.343133 21.5275 0.389995 21.7282 0.4756 21.9133C0.561206 22.0985 0.683748 22.2642 0.835703 22.4002C1.13235 22.6733 1.52098 22.8245 1.92414 22.8238H14.388ZM24.2363 21.1886H2.7797C2.69092 21.1877 2.60317 21.1693 2.52151 21.1345C2.43984 21.0997 2.36585 21.049 2.30377 20.9856C2.24169 20.9221 2.19275 20.847 2.15975 20.7645C2.12675 20.6821 2.11034 20.594 2.11145 20.5052V4.17355C2.11145 3.80061 2.4152 3.5053 2.7797 3.5053H24.2363C24.5957 3.5053 24.886 3.80061 24.886 4.17355V20.5052C24.89 20.6819 24.824 20.8529 24.7022 20.981C24.5805 21.1091 24.4129 21.1838 24.2363 21.1886Z" fill="#8785FF"/>
<path d="M5.52128 16.9933H6.95903C7.02146 16.9933 7.09065 16.9579 7.1109 16.887L7.84328 14.9362C7.85622 14.9055 7.87774 14.8791 7.90527 14.8603C7.9328 14.8414 7.96517 14.8309 7.99853 14.8299H10.7711C10.8369 14.8299 10.8993 14.8687 10.9263 14.9362L11.6587 16.887C11.6697 16.9177 11.6898 16.9444 11.7163 16.9634C11.7429 16.9824 11.7746 16.9928 11.8072 16.9933H13.2483C13.2744 16.9932 13.3001 16.9867 13.323 16.9743C13.346 16.962 13.3655 16.9441 13.38 16.9224C13.3963 16.8998 13.4072 16.8738 13.4119 16.8462C13.4166 16.8187 13.4149 16.7905 13.407 16.7638L10.1906 8.6638C10.1766 8.63423 10.1547 8.60912 10.1273 8.59125C10.0999 8.57338 10.068 8.56345 10.0353 8.56255H8.74272C8.70964 8.56175 8.67709 8.57101 8.64938 8.58908C8.62166 8.60716 8.60008 8.63321 8.58747 8.6638L5.37446 16.7638C5.35421 16.8144 5.35421 16.8802 5.38459 16.9224C5.41834 16.9663 5.47403 16.995 5.52971 16.9933H5.52128ZM8.4879 13.1998L9.36203 10.9993C9.3789 10.974 9.41096 10.947 9.43796 10.947C9.4734 10.947 9.50715 10.9757 9.51728 10.9993L10.3948 13.2049C10.3996 13.2303 10.3973 13.2566 10.388 13.2808C10.3644 13.3027 10.3458 13.3213 10.3155 13.3213H8.56553C8.54528 13.3213 8.51321 13.301 8.49296 13.2808C8.48342 13.2549 8.48166 13.2267 8.4879 13.1998ZM14.6642 16.9933H17.4857C18.8795 16.9933 19.941 16.6237 20.6767 15.861C21.3787 15.132 21.7247 14.1077 21.7247 12.7796C21.7247 11.4532 21.3787 10.4222 20.7054 9.71005C19.9663 8.94223 18.9065 8.56423 17.5076 8.56423H14.6625C14.5832 8.56423 14.4937 8.60136 14.4279 8.65705C14.3736 8.72678 14.3423 8.81172 14.3385 8.90005V16.6609C14.338 16.7041 14.3461 16.747 14.3622 16.787C14.3783 16.8271 14.4022 16.8637 14.4325 16.8945C14.4627 16.9254 14.4987 16.95 14.5385 16.967C14.5782 16.9839 14.6209 16.9929 14.6642 16.9933ZM17.3186 9.91761C18.3108 9.91761 19.0398 10.1336 19.5005 10.5892C19.9359 11.0381 20.1637 11.7401 20.1637 12.7189C20.1637 13.6689 19.9359 14.3777 19.482 14.8316C19.0213 15.2923 18.2889 15.5269 17.3034 15.5269H16.0547C16.0327 15.5281 16.0107 15.5245 15.9903 15.5164C15.9699 15.5082 15.9516 15.4956 15.9365 15.4796C15.9028 15.4459 15.891 15.4121 15.891 15.3598V10.083C15.891 9.99186 15.9602 9.91761 16.0563 9.91761H17.3186Z" fill="#8785FF"/>
</svg>
